<?xml version="1.0" standalone="no"?>
<!DOCTYPE svg PUBLIC "-//W3C//DTD SVG 20010904//EN"
 "http://www.w3.org/TR/2001/REC-SVG-20010904/DTD/svg10.dtd">
<svg version="1.0" xmlns="http://www.w3.org/2000/svg"
 width="500.000000pt" height="500.000000pt" viewBox="0 0 500.000000 500.000000"
 preserveAspectRatio="xMidYMid meet">

<g transform="translate(0.000000,500.000000) scale(0.100000,-0.100000)"
fill="#000000" stroke="none">
<path d="M2330 4989 c-514 -38 -977 -219 -1391 -544 -41 -32 -135 -119 -209
-194 -393 -395 -630 -881 -706 -1445 -20 -151 -20 -457 1 -616 61 -469 242
-896 535 -1259 87 -108 279 -299 385 -382 337 -267 760 -453 1170 -514 681
-101 1345 68 1900 484 112 85 354 320 437 426 186 238 318 483 413 770 77 232
110 400 124 647 59 1001 -492 1941 -1394 2379 -312 151 -583 223 -940 249
-153 11 -171 11 -325 -1z m438 -1324 c6 -16 156 -408 332 -870 538 -1408 487
-1265 465 -1281 -27 -20 -33 -18 -40 16 -4 16 -12 30 -18 29 -7 0 -48 -15 -93
-32 -69 -27 -95 -45 -169 -114 -69 -66 -85 -86 -76 -96 8 -11 7 -18 -8 -31
-18 -16 -38 3 -476 464 -386 406 -455 483 -444 496 6 8 20 13 29 12 20 -4 266
229 262 247 -1 7 5 18 14 26 15 12 30 0 136 -111 66 -69 117 -116 113 -105 -4
11 -67 178 -140 370 -73 193 -137 362 -140 378 -4 15 -10 29 -14 31 -3 2 -156
-366 -340 -817 -184 -452 -337 -826 -341 -830 -9 -10 -310 112 -316 127 -2 6
172 443 386 971 215 528 405 995 422 1037 l31 76 51 -20 c28 -11 68 -27 88
-36 35 -14 40 -13 133 23 56 22 94 42 92 48 -5 14 35 39 44 29 3 -4 11 -20 17
-37z"/>
</g>
</svg>
